#!OML:ASF C:\Vicon Data\Big\jianyuan-13\jianyuan\Session 1\Capture.male.ASF
:FULLY-SPECIFIED
:DEGREES
237
root -5.956086 17.807283 -7.378666 -0.165633 9.408532 0.553646
lowerback -8.453067 -1.359070 -4.086355 
upperback 2.687424 -1.347668 -0.321299 
thorax 7.680654 -0.853578 1.755449 
lowerneck -5.442264 -2.162625 3.461965 
upperneck 10.429156 -3.080751 -3.680978 
head 4.308908 -1.656914 -2.037857 
rclavicle 0.000000 0.000000 
rhumerus -39.443833 -17.059655 -77.745418 
rradius 37.132455 
rwrist 25.526546 
rhand -19.337076 -19.469573 
rfingers 0.000000 
rthumb 6.979805 -49.334504 
lclavicle 0.000000 0.000000 
lhumerus -38.994726 38.635026 69.156873 
lradius 23.713406 
lwrist -67.094333 
lhand -18.668364 -0.942384 
lfingers 0.000000 
lthumb 7.625293 28.900118 
rfemur -58.702663 -5.619016 16.430200 
rtibia 55.849392 
rfoot -10.717326 -5.672825 
rtoes -33.276866 
lfemur 4.392103 -3.396100 -25.286766 
ltibia 9.357286 
lfoot -16.729471 0.728140 
ltoes -29.116757 
238
root -5.949654 17.791195 -7.290349 -0.138116 9.426119 0.700928
lowerback -8.627102 -1.361081 -4.205411 
upperback 2.699006 -1.326925 -0.335899 
thorax 7.795725 -0.850918 1.806484 
lowerneck -5.371471 -2.182067 3.479666 
upperneck 10.463387 -3.112806 -3.659299 
head 4.305698 -1.672267 -2.034322 
rclavicle 0.000000 0.000000 
rhumerus -39.627492 -17.175536 -77.598087 
rradius 37.176293 
rwrist 25.551450 
rhand -19.075481 -19.285841 
rfingers 0.000000 
rthumb 7.232300 -49.142236 
lclavicle 0.000000 0.000000 
lhumerus -39.843166 39.678336 68.050862 
lradius 23.365667 
lwrist -68.187400 
lhand -18.545735 -0.965295 
lfingers 0.000000 
lthumb 7.743599 28.872902 
rfemur -57.256115 -5.204770 16.047752 
rtibia 53.594916 
rfoot -10.872444 -5.970541 
rtoes -33.216994 
lfemur 4.740691 -3.414433 -25.468163 
ltibia 9.354176 
lfoot -17.029255 0.702071 
ltoes -29.222849 
239
root -5.948227 17.777959 -7.200224 -0.053507 9.442553 0.861904
lowerback -8.833523 -1.378110 -4.392759 
upperback 2.672472 -1.316111 -0.359315 
thorax 7.891067 -0.855323 1.885027 
lowerneck -5.290569 -2.195340 3.572012 
upperneck 10.537028 -3.146163 -3.629702 
head 4.313986 -1.685722 -2.042514 
rclavicle 0.000000 0.000000 
rhumerus -39.833989 -17.077411 -77.635639 
rradius 37.254182 
rwrist 25.132009 
rhand -19.443733 -19.509622 
rfingers 0.000000 
rthumb 6.876845 -49.377859 
lclavicle 0.000000 0.000000 
lhumerus -40.451790 40.048202 67.381031 
lradius 23.134340 
lwrist -68.347630 
lhand -18.406664 -0.906899 
lfingers 0.000000 
lthumb 7.877856 28.926340 
rfemur -55.858676 -4.740418 15.674225 
rtibia 51.325223 
rfoot -10.803039 -6.448586 
rtoes -32.894654 
lfemur 5.132596 -3.436441 -25.623682 
ltibia 9.134557 
lfoot -17.233684 0.702572 
ltoes -29.273782 
240
root -5.946362 17.764023 -7.108616 0.119755 9.474268 1.124722
lowerback -9.108991 -1.398841 -4.664603 
upperback 2.633225 -1.295065 -0.397755 
thorax 8.014109 -0.859136 1.995662 
lowerneck -5.267141 -2.223713 3.531967 
upperneck 10.627945 -3.194334 -3.541543 
head 4.341536 -1.708746 -2.009295 
rclavicle 0.000000 0.000000 
rhumerus -40.078033 -17.357253 -77.378014 
rradius 37.248245 
rwrist 25.622168 
rhand -19.287510 -19.381727 
rfingers 0.000000 
rthumb 7.027629 -49.245040 
lclavicle 0.000000 0.000000 
lhumerus -40.860613 39.963074 67.049259 
lradius 23.006262 
lwrist -68.251584 
lhand -18.291586 -0.560517 
lfingers 0.000000 
lthumb 7.988941 29.268488 
rfemur -54.509981 -4.280025 15.173216 
rtibia 48.983721 
rfoot -10.815148 -6.913822 
rtoes -32.299900 
lfemur 5.464698 -3.481394 -25.897937 
ltibia 8.876159 
lfoot -17.392135 0.763837 
ltoes -29.532354 
241
root -5.945433 17.747398 -7.019018 0.168104 9.562119 1.164765
lowerback -9.237385 -1.383443 -4.697060 
upperback 2.588094 -1.263543 -0.400561 
thorax 8.038392 -0.844656 2.014386 
lowerneck -5.132287 -2.298196 3.583253 
upperneck 10.673202 -3.301288 -3.554368 
head 4.325442 -1.762386 -2.025834 
rclavicle 0.000000 0.000000 
rhumerus -40.406100 -17.674118 -77.124923 
rradius 37.224198 
rwrist 25.905684 
rhand -19.120530 -19.283838 
rfingers 0.000000 
rthumb 7.188783 -49.141763 
lclavicle 0.000000 0.000000 
lhumerus -42.080903 41.237058 65.389113 
lradius 22.721993 
lwrist -70.919655 
lhand -18.685089 -1.137356 
lfingers 0.000000 
lthumb 7.609150 28.705788 
rfemur -52.990492 -3.748412 14.858922 
rtibia 46.549441 
rfoot -10.691471 -7.314133 
rtoes -32.872292 
lfemur 5.635990 -3.573991 -25.910226 
ltibia 9.117836 
lfoot -17.760156 0.739340 
ltoes -29.963448 
242
root -5.950968 17.731229 -6.929883 0.254939 9.797934 1.033214
lowerback -9.401458 -1.458251 -4.630859 
upperback 2.539938 -1.365544 -0.338855 
thorax 8.088649 -0.891599 2.023565 
lowerneck -5.132837 -2.308564 3.548915 
upperneck 10.801896 -3.329675 -3.450461 
head 4.372672 -1.775204 -1.989064 
rclavicle 0.000000 0.000000 
rhumerus -40.640011 -17.850367 -76.990683 
rradius 37.175128 
rwrist 25.974458 
rhand -19.057215 -19.262086 
rfingers 0.000000 
rthumb 7.249918 -49.117864 
lclavicle 0.000000 0.000000 
lhumerus -42.536180 41.480963 64.887713 
lradius 22.606989 
lwrist -70.972380 
lhand -18.570726 -0.804082 
lfingers 0.000000 
lthumb 7.719483 29.035028 
rfemur -51.508096 -3.322256 14.784955 
rtibia 44.094958 
rfoot -10.729658 -7.896419 
rtoes -32.805597 
lfemur 5.645588 -3.820344 -25.698353 
ltibia 9.474405 
lfoot -18.132673 0.775029 
ltoes -30.711003 
